<svg xmlns="http://www.w3.org/2000/svg" width="128" height="128"><path fill="#000" fill-rule="nonzero" d="M85.75 76c10.31 0 19-8.248 19-19 0-1.375-.148-2.7-.443-3.977h7.856c1.816 0 3.29-1.424 3.29-3.191 0-1.816-1.474-3.191-3.29-3.191h-10.507C98.27 41.437 92.377 38 85.75 38c-7.266 0-13.845 4.222-16.987 10.506a10.558 10.558 0 0 0-5.99-1.865c-2.209 0-4.27.687-5.99 1.915C53.642 42.32 47.16 38 39.797 38c-6.53 0-12.52 3.388-15.956 8.64h-8.003c-1.816 0-3.29 1.376-3.29 3.192 0 1.767 1.474 3.191 3.29 3.191h5.352A21.005 21.005 0 0 0 20.796 57c0 10.506 8.493 19 19 19 10.26 0 19-8.248 19-19a3.96 3.96 0 0 1 3.977-3.977A3.96 3.96 0 0 1 66.749 57c0 10.506 8.494 19 19 19Z"/></svg>
